{"title":"The.Book.Of.Life.2014.3D.SBS.1080p.Audio.Latino.AlexHD","magnet":"magnet:?xt=urn:btih:45c0b059b076661e84e849e6b77742a69374924a&dn=The.Book.Of.Life.2014.3D.SBS.1080p.Audio.Latino.AlexHD&tr=udp%3A%2F%2Ftracker.leechers-paradise.org%3A6969&tr=udp%3A%2F%2Fzer0day.ch%3A1337&tr=udp%3A%2F%2Fopen.demonii.com%3A1337&tr=udp%3A%2F%2Ftracker.coppersurfer.tk%3A6969&tr=udp%3A%2F%2Fexodus.desync.com%3A6969","uploader":"sija73","categoryP":"video","categoryS":"3d","size":"2385908449","seeders":"0","leechers":"0","description":"General\r\nComplete name         \t\t: The.Book.Of.Life.2014.3D.SBS.1080p.Audio.Latino.AlexHD.mp4\r\nFormat                           : MPEG-4\r\nFormat profile                \t : Base Media / Version 2\r\nCodec ID                         : mp42\r\nFile size                        : 2.22 GiB\r\nDuration                         : 1h 27mn\r\nOverall bit rate                 : 3 630 Kbps\r\n\r\nVideo\r\nID                               : 1\r\nFormat                           : AVC\r\nFormat/Info                      : Advanced Video Codec\r\nFormat profile                   : Baseline@L4.0\r\nFormat settings, CABAC           \t: No\r\nFormat settings, ReFrames\t : 3 frames\r\nCodec ID                         : avc1\r\nCodec ID/Info                    : Advanced Video Coding\r\nDuration                         : 1h 27mn\r\nBit rate mode                    : Variable\r\nBit rate                         : 3 574 Kbps\r\nWidth                            : 1 920 pixels\r\nHeight                           : 1 080 pixels\r\nDisplay aspect ratio           \t : 16:9\r\nFrame rate mode                  : Variable\r\nFrame rate                       : 24.000 fps\r\nMinimum frame rate               : 24.000 fps\r\nMaximum frame rate               : 24.024 fps\r\nColor space                      : YUV\r\nChroma subsampling               : 4:2:0\r\nBit depth                        : 8 bits\r\nScan type                        : Progressive\r\nBits/(Pixel*Frame)               : 0.072\r\nStream size                      : 2.19 GiB (98%)\r\n\r\nAudio\r\nID                               : 2\r\nFormat                           : AAC\r\nFormat/Info                      : Advanced Audio Codec\r\nFormat profile                   : LC\r\nCodec ID                         : 40\r\nDuration                         : 1h 27mn\r\nBit rate mode                    : Variable\r\nBit rate                         : 53.7 Kbps\r\nMaximum bit rate                 : 159 Kbps\r\nChannel(s)                       : 2 channels\r\nChannel positions                : Front: L R\r\nSampling rate                    : 44.1 KHz\r\nCompression mode                 : Lossy\r\nStream size                      : 33.6 MiB (1%)\r\nLanguage                         : Latin","last_updated":"2018-08-17T12:13:59.469Z","parsed":{"xt":"urn:btih:45c0b059b076661e84e849e6b77742a69374924a","dn":"The.Book.Of.Life.2014.3D.SBS.1080p.Audio.Latino.AlexHD","tr":["udp://exodus.desync.com:6969","udp://open.demonii.com:1337","udp://tracker.coppersurfer.tk:6969","udp://tracker.leechers-paradise.org:6969","udp://zer0day.ch:1337"],"infoHash":"45c0b059b076661e84e849e6b77742a69374924a","infoHashBuffer":{"type":"Buffer","data":[69,192,176,89,176,118,102,30,132,232,73,230,183,119,66,166,147,116,146,74]},"name":"The.Book.Of.Life.2014.3D.SBS.1080p.Audio.Latino.AlexHD","announce":["udp://exodus.desync.com:6969","udp://open.demonii.com:1337","udp://tracker.coppersurfer.tk:6969","udp://tracker.leechers-paradise.org:6969","udp://zer0day.ch:1337"],"urlList":[]}}